<mxfile host="65bd71144e">
    <diagram id="0XDuVzTi9OnWPvPNA0fm" name="Page-1">
        <mxGraphModel dx="1781" dy="1726" grid="1" gridSize="10" guides="1" tooltips="1" connect="1" arrows="1" fold="1" page="1" pageScale="1" pageWidth="850" pageHeight="1100" math="0" shadow="0">
            <root>
                <mxCell id="0"/>
                <mxCell id="1" parent="0"/>
                <mxCell id="3" value="&lt;font&gt;d&lt;/font&gt;" style="ellipse;whiteSpace=wrap;html=1;aspect=fixed;fillColor=none;strokeColor=#b85450;fontColor=#FFFFFF;" parent="1" vertex="1">
                    <mxGeometry x="180" y="-380" width="20" height="20" as="geometry"/>
                </mxCell>
                <mxCell id="4" value="" style="endArrow=none;html=1;rounded=0;entryX=0.5;entryY=0;entryDx=0;entryDy=0;fillColor=#f8cecc;strokeColor=#b85450;fontColor=#FFFFFF;startArrow=none;" parent="1" target="3" edge="1">
                    <mxGeometry relative="1" as="geometry">
                        <mxPoint x="190" y="-430" as="sourcePoint"/>
                        <mxPoint x="350" y="-400" as="targetPoint"/>
                    </mxGeometry>
                </mxCell>
                <mxCell id="5" value="" style="endArrow=none;html=1;rounded=0;entryX=0;entryY=0.5;entryDx=0;entryDy=0;fillColor=#f8cecc;strokeColor=#b85450;fontColor=#FFFFFF;" parent="1" target="9" edge="1">
                    <mxGeometry relative="1" as="geometry">
                        <mxPoint x="200" y="-370" as="sourcePoint"/>
                        <mxPoint x="260" y="-309.5" as="targetPoint"/>
                        <Array as="points">
                            <mxPoint x="280" y="-300"/>
                        </Array>
                    </mxGeometry>
                </mxCell>
                <mxCell id="6" value="" style="endArrow=none;html=1;rounded=0;entryX=0.5;entryY=0;entryDx=0;entryDy=0;fillColor=#f8cecc;strokeColor=#b85450;fontColor=#FFFFFF;" parent="1" target="147" edge="1">
                    <mxGeometry relative="1" as="geometry">
                        <mxPoint x="190" y="-360" as="sourcePoint"/>
                        <mxPoint x="190" y="-270" as="targetPoint"/>
                    </mxGeometry>
                </mxCell>
                <mxCell id="7" value="" style="endArrow=none;html=1;rounded=0;exitX=1;exitY=0.5;exitDx=0;exitDy=0;fillColor=#f8cecc;strokeColor=#b85450;fontColor=#FFFFFF;" parent="1" source="8" edge="1">
                    <mxGeometry relative="1" as="geometry">
                        <mxPoint x="100" y="-320" as="sourcePoint"/>
                        <mxPoint x="180" y="-370.5" as="targetPoint"/>
                        <Array as="points">
                            <mxPoint x="80" y="-290"/>
                        </Array>
                    </mxGeometry>
                </mxCell>
                <mxCell id="8" value="Admin" style="whiteSpace=wrap;html=1;align=center;fillColor=#647687;strokeColor=#314354;fontColor=#ffffff;rounded=1;" parent="1" vertex="1">
                    <mxGeometry x="-140" y="-310" width="100" height="40" as="geometry"/>
                </mxCell>
                <mxCell id="9" value="Student" style="whiteSpace=wrap;html=1;align=center;fillColor=#647687;strokeColor=#314354;fontColor=#ffffff;rounded=1;" parent="1" vertex="1">
                    <mxGeometry x="430" y="-320" width="100" height="40" as="geometry"/>
                </mxCell>
                <mxCell id="10" style="edgeStyle=orthogonalEdgeStyle;rounded=0;orthogonalLoop=1;jettySize=auto;html=1;fontColor=#FFFFFF;" parent="1" edge="1">
                    <mxGeometry relative="1" as="geometry">
                        <mxPoint x="210" y="160" as="targetPoint"/>
                        <mxPoint x="210" y="160" as="sourcePoint"/>
                    </mxGeometry>
                </mxCell>
                <mxCell id="11" value="Course" style="whiteSpace=wrap;html=1;align=center;fillColor=#647687;strokeColor=#314354;fontColor=#ffffff;rounded=1;" parent="1" vertex="1">
                    <mxGeometry x="130" y="102.5" width="120" height="50" as="geometry"/>
                </mxCell>
                <mxCell id="12" value="enrolls" style="shape=rhombus;perimeter=rhombusPerimeter;whiteSpace=wrap;html=1;align=center;fillColor=#d5e8d4;strokeColor=#82b366;fontColor=#FFFFFF;" parent="1" vertex="1">
                    <mxGeometry x="425" y="-100" width="110" height="50" as="geometry"/>
                </mxCell>
                <mxCell id="13" value="" style="endArrow=none;html=1;rounded=0;exitX=0.5;exitY=1;exitDx=0;exitDy=0;fillColor=#d5e8d4;strokeColor=#82b366;fontColor=#FFFFFF;" parent="1" source="8" target="15" edge="1">
                    <mxGeometry relative="1" as="geometry">
                        <mxPoint x="-100" y="-260" as="sourcePoint"/>
                        <mxPoint x="58" y="-60" as="targetPoint"/>
                    </mxGeometry>
                </mxCell>
                <mxCell id="14" value="1" style="edgeLabel;html=1;align=center;verticalAlign=middle;resizable=0;points=[];fontColor=#FFFFFF;" parent="13" vertex="1" connectable="0">
                    <mxGeometry x="0.744" relative="1" as="geometry">
                        <mxPoint as="offset"/>
                    </mxGeometry>
                </mxCell>
                <mxCell id="15" value="administrates&amp;nbsp;" style="shape=rhombus;perimeter=rhombusPerimeter;whiteSpace=wrap;html=1;align=center;fillColor=#d5e8d4;strokeColor=#82b366;fontColor=#FFFFFF;" parent="1" vertex="1">
                    <mxGeometry x="-150" y="-100" width="120" height="60" as="geometry"/>
                </mxCell>
                <mxCell id="16" value="" style="endArrow=none;html=1;rounded=0;exitX=0.5;exitY=1;exitDx=0;exitDy=0;entryX=0;entryY=0.25;entryDx=0;entryDy=0;fillColor=#d5e8d4;strokeColor=#82b366;fontColor=#FFFFFF;" parent="1" source="15" target="11" edge="1">
                    <mxGeometry relative="1" as="geometry">
                        <mxPoint x="20" y="20" as="sourcePoint"/>
                        <mxPoint x="60" y="50" as="targetPoint"/>
                        <Array as="points">
                            <mxPoint x="-90" y="115"/>
                        </Array>
                    </mxGeometry>
                </mxCell>
                <mxCell id="17" value="N" style="edgeLabel;html=1;align=center;verticalAlign=middle;resizable=0;points=[];fontColor=#FFFFFF;" parent="16" vertex="1" connectable="0">
                    <mxGeometry x="-0.7619" y="-2" relative="1" as="geometry">
                        <mxPoint as="offset"/>
                    </mxGeometry>
                </mxCell>
                <mxCell id="18" value="" style="endArrow=none;html=1;rounded=0;exitX=0.5;exitY=1;exitDx=0;exitDy=0;entryX=0.5;entryY=0;entryDx=0;entryDy=0;fontColor=#FFFFFF;" parent="1" source="147" target="20" edge="1">
                    <mxGeometry relative="1" as="geometry">
                        <mxPoint x="160" y="-170" as="sourcePoint"/>
                        <mxPoint x="190" y="-130" as="targetPoint"/>
                    </mxGeometry>
                </mxCell>
                <mxCell id="19" value="M" style="edgeLabel;html=1;align=center;verticalAlign=middle;resizable=0;points=[];fontColor=#FFFFFF;" parent="18" vertex="1" connectable="0">
                    <mxGeometry x="0.652" y="4" relative="1" as="geometry">
                        <mxPoint as="offset"/>
                    </mxGeometry>
                </mxCell>
                <mxCell id="20" value="teaches" style="shape=rhombus;perimeter=rhombusPerimeter;whiteSpace=wrap;html=1;align=center;fillColor=#d5e8d4;strokeColor=#82b366;fontColor=#FFFFFF;" parent="1" vertex="1">
                    <mxGeometry x="130" y="-105" width="120" height="60" as="geometry"/>
                </mxCell>
                <mxCell id="21" value="" style="endArrow=none;html=1;rounded=0;exitX=0.5;exitY=1;exitDx=0;exitDy=0;entryX=0.5;entryY=0;entryDx=0;entryDy=0;fillColor=#d5e8d4;strokeColor=#82b366;fontColor=#FFFFFF;" parent="1" source="20" target="11" edge="1">
                    <mxGeometry relative="1" as="geometry">
                        <mxPoint x="170" y="10" as="sourcePoint"/>
                        <mxPoint x="190" y="90" as="targetPoint"/>
                    </mxGeometry>
                </mxCell>
                <mxCell id="22" value="N" style="edgeLabel;html=1;align=center;verticalAlign=middle;resizable=0;points=[];fontColor=#FFFFFF;" parent="21" vertex="1" connectable="0">
                    <mxGeometry x="-0.6486" y="-3" relative="1" as="geometry">
                        <mxPoint as="offset"/>
                    </mxGeometry>
                </mxCell>
                <mxCell id="23" value="" style="endArrow=none;html=1;rounded=0;entryX=0.06;entryY=0.483;entryDx=0;entryDy=0;entryPerimeter=0;fillColor=#d5e8d4;strokeColor=#82b366;fontColor=#FFFFFF;exitX=1;exitY=0.5;exitDx=0;exitDy=0;" parent="1" source="11" target="25" edge="1">
                    <mxGeometry relative="1" as="geometry">
                        <mxPoint x="280" y="130" as="sourcePoint"/>
                        <mxPoint x="505" y="114.5" as="targetPoint"/>
                    </mxGeometry>
                </mxCell>
                <mxCell id="24" value="1" style="edgeLabel;html=1;align=center;verticalAlign=middle;resizable=0;points=[];fontColor=#FFFFFF;" parent="23" vertex="1" connectable="0">
                    <mxGeometry x="0.4206" y="2" relative="1" as="geometry">
                        <mxPoint as="offset"/>
                    </mxGeometry>
                </mxCell>
                <mxCell id="25" value="contains" style="shape=rhombus;perimeter=rhombusPerimeter;whiteSpace=wrap;html=1;align=center;fillColor=#d5e8d4;strokeColor=#82b366;fontColor=#FFFFFF;" parent="1" vertex="1">
                    <mxGeometry x="650" y="100" width="110" height="55" as="geometry"/>
                </mxCell>
                <mxCell id="26" value="" style="endArrow=none;html=1;rounded=0;exitX=1;exitY=0.5;exitDx=0;exitDy=0;entryX=0;entryY=0.5;entryDx=0;entryDy=0;fillColor=#d5e8d4;strokeColor=#82b366;fontColor=#FFFFFF;" parent="1" source="25" target="28" edge="1">
                    <mxGeometry relative="1" as="geometry">
                        <mxPoint x="570" y="115" as="sourcePoint"/>
                        <mxPoint x="730" y="114.5" as="targetPoint"/>
                    </mxGeometry>
                </mxCell>
                <mxCell id="27" value="N" style="edgeLabel;html=1;align=center;verticalAlign=middle;resizable=0;points=[];fontColor=#FFFFFF;" parent="26" vertex="1" connectable="0">
                    <mxGeometry x="-0.6073" y="-1" relative="1" as="geometry">
                        <mxPoint as="offset"/>
                    </mxGeometry>
                </mxCell>
                <mxCell id="28" value="Assignment" style="whiteSpace=wrap;html=1;align=center;fillColor=#647687;strokeColor=#314354;fontColor=#ffffff;rounded=1;" parent="1" vertex="1">
                    <mxGeometry x="915" y="102.5" width="110" height="45" as="geometry"/>
                </mxCell>
                <mxCell id="29" value="" style="endArrow=none;html=1;rounded=0;entryX=0.5;entryY=0;entryDx=0;entryDy=0;exitX=0.5;exitY=1;exitDx=0;exitDy=0;fillColor=#d5e8d4;strokeColor=#82b366;fontColor=#FFFFFF;" parent="1" source="31" target="28" edge="1">
                    <mxGeometry relative="1" as="geometry">
                        <mxPoint x="705" as="sourcePoint"/>
                        <mxPoint x="780" as="targetPoint"/>
                    </mxGeometry>
                </mxCell>
                <mxCell id="30" value="1" style="edgeLabel;html=1;align=center;verticalAlign=middle;resizable=0;points=[];fontColor=#FFFFFF;" parent="29" vertex="1" connectable="0">
                    <mxGeometry x="-0.4465" y="2" relative="1" as="geometry">
                        <mxPoint as="offset"/>
                    </mxGeometry>
                </mxCell>
                <mxCell id="31" value="includes" style="shape=rhombus;perimeter=rhombusPerimeter;whiteSpace=wrap;html=1;align=center;fillColor=#6d8764;strokeColor=#3A5431;fontColor=#FFFFFF;" parent="1" vertex="1">
                    <mxGeometry x="915" y="-45" width="110" height="50" as="geometry"/>
                </mxCell>
                <mxCell id="32" value="Submission" style="rounded=1;arcSize=10;whiteSpace=wrap;html=1;align=center;fillColor=#647687;strokeColor=#314354;fontColor=#ffffff;" parent="1" vertex="1">
                    <mxGeometry x="920" y="-175" width="100" height="40" as="geometry"/>
                </mxCell>
                <mxCell id="33" value="" style="endArrow=none;html=1;rounded=0;entryX=0;entryY=0.5;entryDx=0;entryDy=0;exitX=1;exitY=0.5;exitDx=0;exitDy=0;fillColor=#d5e8d4;strokeColor=#82b366;fontColor=#FFFFFF;" parent="1" source="9" target="35" edge="1">
                    <mxGeometry relative="1" as="geometry">
                        <mxPoint x="370" y="-290.5" as="sourcePoint"/>
                        <mxPoint x="530" y="-290.5" as="targetPoint"/>
                    </mxGeometry>
                </mxCell>
                <mxCell id="234" value="1" style="edgeLabel;html=1;align=center;verticalAlign=middle;resizable=0;points=[];" parent="33" vertex="1" connectable="0">
                    <mxGeometry x="0.8421" y="-4" relative="1" as="geometry">
                        <mxPoint as="offset"/>
                    </mxGeometry>
                </mxCell>
                <mxCell id="35" value="turns in&amp;nbsp;" style="shape=rhombus;perimeter=rhombusPerimeter;whiteSpace=wrap;html=1;align=center;fillColor=#d5e8d4;strokeColor=#82b366;fontColor=#FFFFFF;" parent="1" vertex="1">
                    <mxGeometry x="910" y="-330" width="120" height="60" as="geometry"/>
                </mxCell>
                <mxCell id="36" value="" style="endArrow=none;html=1;rounded=0;entryX=0.5;entryY=0;entryDx=0;entryDy=0;exitX=0.5;exitY=1;exitDx=0;exitDy=0;fillColor=#d5e8d4;strokeColor=#82b366;fontColor=#FFFFFF;" parent="1" source="35" target="32" edge="1">
                    <mxGeometry relative="1" as="geometry">
                        <mxPoint x="960" y="-260" as="sourcePoint"/>
                        <mxPoint x="915" y="-210" as="targetPoint"/>
                        <Array as="points"/>
                    </mxGeometry>
                </mxCell>
                <mxCell id="37" value="1" style="edgeLabel;html=1;align=center;verticalAlign=middle;resizable=0;points=[];fontColor=#FFFFFF;" parent="36" vertex="1" connectable="0">
                    <mxGeometry x="-0.7017" y="2" relative="1" as="geometry">
                        <mxPoint as="offset"/>
                    </mxGeometry>
                </mxCell>
                <mxCell id="38" value="" style="endArrow=none;html=1;rounded=0;exitX=0.5;exitY=0;exitDx=0;exitDy=0;fillColor=#d5e8d4;strokeColor=#82b366;fontColor=#FFFFFF;entryX=0.25;entryY=1;entryDx=0;entryDy=0;" parent="1" source="40" target="11" edge="1">
                    <mxGeometry relative="1" as="geometry">
                        <mxPoint x="20" y="200" as="sourcePoint"/>
                        <mxPoint x="140" y="150" as="targetPoint"/>
                        <Array as="points">
                            <mxPoint x="100" y="190"/>
                            <mxPoint x="160" y="190"/>
                        </Array>
                    </mxGeometry>
                </mxCell>
                <mxCell id="39" value="1" style="edgeLabel;html=1;align=center;verticalAlign=middle;resizable=0;points=[];fontColor=#FFFFFF;" parent="38" vertex="1" connectable="0">
                    <mxGeometry x="-0.7456" y="-1" relative="1" as="geometry">
                        <mxPoint as="offset"/>
                    </mxGeometry>
                </mxCell>
                <mxCell id="40" value="provides" style="shape=rhombus;perimeter=rhombusPerimeter;whiteSpace=wrap;html=1;align=center;fillColor=#6d8764;strokeColor=#3A5431;fontColor=#FFFFFF;" parent="1" vertex="1">
                    <mxGeometry x="40" y="280" width="120" height="60" as="geometry"/>
                </mxCell>
                <mxCell id="41" value="" style="endArrow=none;html=1;rounded=0;entryX=0.5;entryY=1;entryDx=0;entryDy=0;exitX=0.5;exitY=0;exitDx=0;exitDy=0;fillColor=#d5e8d4;strokeColor=#82b366;fontColor=#FFFFFF;" parent="1" source="43" target="40" edge="1">
                    <mxGeometry relative="1" as="geometry">
                        <mxPoint x="-310" y="200" as="sourcePoint"/>
                        <mxPoint x="-150" y="200" as="targetPoint"/>
                    </mxGeometry>
                </mxCell>
                <mxCell id="42" value="N" style="edgeLabel;html=1;align=center;verticalAlign=middle;resizable=0;points=[];fontColor=#FFFFFF;" parent="41" vertex="1" connectable="0">
                    <mxGeometry x="0.685" relative="1" as="geometry">
                        <mxPoint as="offset"/>
                    </mxGeometry>
                </mxCell>
                <mxCell id="43" value="Content" style="whiteSpace=wrap;html=1;align=center;fillColor=#647687;strokeColor=#314354;fontColor=#ffffff;rounded=1;" parent="1" vertex="1">
                    <mxGeometry x="50" y="450" width="100" height="50" as="geometry"/>
                </mxCell>
                <mxCell id="44" value="" style="endArrow=none;html=1;rounded=0;entryX=0.5;entryY=0;entryDx=0;entryDy=0;fillColor=#d5e8d4;strokeColor=#82b366;fontColor=#FFFFFF;exitX=0.75;exitY=1;exitDx=0;exitDy=0;" parent="1" target="46" edge="1" source="11">
                    <mxGeometry relative="1" as="geometry">
                        <mxPoint x="220" y="160" as="sourcePoint"/>
                        <mxPoint x="280" y="260" as="targetPoint"/>
                        <Array as="points">
                            <mxPoint x="220" y="190"/>
                            <mxPoint x="290" y="190"/>
                        </Array>
                    </mxGeometry>
                </mxCell>
                <mxCell id="45" value="1" style="edgeLabel;html=1;align=center;verticalAlign=middle;resizable=0;points=[];fontColor=#FFFFFF;" parent="44" vertex="1" connectable="0">
                    <mxGeometry x="0.8358" y="2" relative="1" as="geometry">
                        <mxPoint as="offset"/>
                    </mxGeometry>
                </mxCell>
                <mxCell id="46" value="consists of" style="shape=rhombus;perimeter=rhombusPerimeter;whiteSpace=wrap;html=1;align=center;fillColor=#6d8764;strokeColor=#3A5431;fontColor=#FFFFFF;" parent="1" vertex="1">
                    <mxGeometry x="230" y="280" width="120" height="60" as="geometry"/>
                </mxCell>
                <mxCell id="47" value="" style="endArrow=none;html=1;rounded=0;exitX=0.5;exitY=1;exitDx=0;exitDy=0;fillColor=#d5e8d4;strokeColor=#82b366;fontColor=#FFFFFF;" parent="1" source="46" target="49" edge="1">
                    <mxGeometry relative="1" as="geometry">
                        <mxPoint x="250" y="410" as="sourcePoint"/>
                        <mxPoint x="300" y="420" as="targetPoint"/>
                    </mxGeometry>
                </mxCell>
                <mxCell id="48" value="1" style="edgeLabel;html=1;align=center;verticalAlign=middle;resizable=0;points=[];fontColor=#FFFFFF;" parent="47" vertex="1" connectable="0">
                    <mxGeometry x="-0.56" y="2" relative="1" as="geometry">
                        <mxPoint as="offset"/>
                    </mxGeometry>
                </mxCell>
                <mxCell id="49" value="Schedule" style="whiteSpace=wrap;html=1;align=center;fillColor=#647687;strokeColor=#314354;fontColor=#FFFFFF;rounded=1;" parent="1" vertex="1">
                    <mxGeometry x="235" y="445" width="110" height="50" as="geometry"/>
                </mxCell>
                <mxCell id="50" value="Certification" style="whiteSpace=wrap;html=1;align=center;fillColor=#647687;strokeColor=#314354;fontColor=#ffffff;rounded=1;" parent="1" vertex="1">
                    <mxGeometry x="630" y="-95" width="100" height="40" as="geometry"/>
                </mxCell>
                <mxCell id="51" value="" style="endArrow=none;html=1;rounded=0;exitX=1;exitY=0.5;exitDx=0;exitDy=0;entryX=0;entryY=0.5;entryDx=0;entryDy=0;fillColor=#d5e8d4;strokeColor=#82b366;fontColor=#FFFFFF;" parent="1" source="12" target="50" edge="1">
                    <mxGeometry relative="1" as="geometry">
                        <mxPoint x="370" y="-70" as="sourcePoint"/>
                        <mxPoint x="460" y="-125" as="targetPoint"/>
                    </mxGeometry>
                </mxCell>
                <mxCell id="52" value="" style="endArrow=none;html=1;rounded=0;entryX=0.5;entryY=1;entryDx=0;entryDy=0;fillColor=#d5e8d4;strokeColor=#82b366;fontColor=#FFFFFF;" parent="1" target="12" edge="1">
                    <mxGeometry relative="1" as="geometry">
                        <mxPoint x="220" y="100" as="sourcePoint"/>
                        <mxPoint x="420" y="-80" as="targetPoint"/>
                        <Array as="points">
                            <mxPoint x="220" y="20"/>
                            <mxPoint x="480" y="20"/>
                        </Array>
                    </mxGeometry>
                </mxCell>
                <mxCell id="53" value="N" style="edgeLabel;html=1;align=center;verticalAlign=middle;resizable=0;points=[];fontColor=#FFFFFF;" parent="52" vertex="1" connectable="0">
                    <mxGeometry x="0.8769" relative="1" as="geometry">
                        <mxPoint as="offset"/>
                    </mxGeometry>
                </mxCell>
                <mxCell id="54" value="last_name" style="ellipse;whiteSpace=wrap;html=1;align=center;fillColor=#76608a;strokeColor=#432D57;fontColor=#FFFFFF;" parent="1" vertex="1">
                    <mxGeometry x="195" y="-550" width="80" height="30" as="geometry"/>
                </mxCell>
                <mxCell id="55" value="email" style="ellipse;whiteSpace=wrap;html=1;align=center;fillColor=#76608a;strokeColor=#432D57;fontColor=#FFFFFF;" parent="1" vertex="1">
                    <mxGeometry x="298" y="-522.5" width="75" height="30" as="geometry"/>
                </mxCell>
                <mxCell id="56" value="" style="endArrow=none;html=1;rounded=0;entryX=0.75;entryY=0;entryDx=0;entryDy=0;fillColor=#e1d5e7;strokeColor=#9673a6;fontColor=#FFFFFF;" parent="1" source="55" target="149" edge="1">
                    <mxGeometry relative="1" as="geometry">
                        <mxPoint x="180" y="-230" as="sourcePoint"/>
                        <mxPoint x="240" y="-467.5" as="targetPoint"/>
                    </mxGeometry>
                </mxCell>
                <mxCell id="57" value="" style="endArrow=none;html=1;rounded=0;exitX=0.312;exitY=0.121;exitDx=0;exitDy=0;exitPerimeter=0;fillColor=#e1d5e7;strokeColor=#9673a6;fontColor=#FFFFFF;" parent="1" source="149" target="58" edge="1">
                    <mxGeometry relative="1" as="geometry">
                        <mxPoint x="176.79999999999995" y="-466.10000000000014" as="sourcePoint"/>
                        <mxPoint x="400" y="-340" as="targetPoint"/>
                    </mxGeometry>
                </mxCell>
                <mxCell id="58" value="name" style="ellipse;whiteSpace=wrap;html=1;align=center;fillColor=#76608a;strokeColor=#432D57;fontColor=#FFFFFF;" parent="1" vertex="1">
                    <mxGeometry x="90" y="-550" width="80" height="30" as="geometry"/>
                </mxCell>
                <mxCell id="59" value="" style="endArrow=none;html=1;rounded=0;exitX=0.5;exitY=1;exitDx=0;exitDy=0;entryX=0.5;entryY=0;entryDx=0;entryDy=0;fillColor=#e1d5e7;strokeColor=#9673a6;fontColor=#FFFFFF;" parent="1" source="54" target="149" edge="1">
                    <mxGeometry relative="1" as="geometry">
                        <mxPoint x="240" y="-340" as="sourcePoint"/>
                        <mxPoint x="203.19999999999982" y="-466.9000000000001" as="targetPoint"/>
                    </mxGeometry>
                </mxCell>
                <mxCell id="61" value="certificate_id" style="ellipse;whiteSpace=wrap;html=1;align=center;fontStyle=4;fillColor=#76608a;strokeColor=#432D57;fontColor=#FFFFFF;" parent="1" vertex="1">
                    <mxGeometry x="548" y="-185" width="70" height="40" as="geometry"/>
                </mxCell>
                <mxCell id="63" value="" style="endArrow=none;html=1;rounded=0;exitX=0.788;exitY=0.075;exitDx=0;exitDy=0;exitPerimeter=0;entryX=0;entryY=0.75;entryDx=0;entryDy=0;fillColor=#e1d5e7;strokeColor=#9673a6;fontColor=#FFFFFF;" parent="1" source="72" target="11" edge="1">
                    <mxGeometry relative="1" as="geometry">
                        <mxPoint x="60" y="155" as="sourcePoint"/>
                        <mxPoint x="220" y="155" as="targetPoint"/>
                    </mxGeometry>
                </mxCell>
                <mxCell id="64" value="" style="endArrow=none;html=1;rounded=0;exitX=0.744;exitY=0.975;exitDx=0;exitDy=0;exitPerimeter=0;entryX=0.25;entryY=0;entryDx=0;entryDy=0;fillColor=#e1d5e7;strokeColor=#9673a6;fontColor=#FFFFFF;" parent="1" source="70" target="11" edge="1">
                    <mxGeometry relative="1" as="geometry">
                        <mxPoint x="270" y="60" as="sourcePoint"/>
                        <mxPoint x="430" y="60" as="targetPoint"/>
                    </mxGeometry>
                </mxCell>
                <mxCell id="65" value="" style="endArrow=none;html=1;rounded=0;entryX=0.5;entryY=1;entryDx=0;entryDy=0;exitX=0.5;exitY=0;exitDx=0;exitDy=0;fillColor=#e1d5e7;strokeColor=#9673a6;fontColor=#FFFFFF;" parent="1" source="50" target="250" edge="1">
                    <mxGeometry relative="1" as="geometry">
                        <mxPoint x="660" y="-100" as="sourcePoint"/>
                        <mxPoint x="671.3600000000001" y="-169.4000000000001" as="targetPoint"/>
                    </mxGeometry>
                </mxCell>
                <mxCell id="66" value="" style="endArrow=none;html=1;rounded=0;exitX=0.412;exitY=1.065;exitDx=0;exitDy=0;exitPerimeter=0;entryX=0.25;entryY=0;entryDx=0;entryDy=0;fillColor=#e1d5e7;strokeColor=#9673a6;fontColor=#FFFFFF;" parent="1" source="61" target="50" edge="1">
                    <mxGeometry relative="1" as="geometry">
                        <mxPoint x="560" y="-110" as="sourcePoint"/>
                        <mxPoint x="720" y="-110" as="targetPoint"/>
                    </mxGeometry>
                </mxCell>
                <mxCell id="67" value="" style="endArrow=none;html=1;rounded=0;entryX=0.5;entryY=1;entryDx=0;entryDy=0;exitX=0.75;exitY=0;exitDx=0;exitDy=0;fillColor=#e1d5e7;strokeColor=#9673a6;fontColor=#FFFFFF;" parent="1" source="50" target="251" edge="1">
                    <mxGeometry relative="1" as="geometry">
                        <mxPoint x="720" y="-100" as="sourcePoint"/>
                        <mxPoint x="752.7999999999997" y="-147" as="targetPoint"/>
                    </mxGeometry>
                </mxCell>
                <mxCell id="68" value="schedule_id" style="ellipse;whiteSpace=wrap;html=1;align=center;fontStyle=4;fillColor=#76608a;strokeColor=#432D57;fontColor=#FFFFFF;" parent="1" vertex="1">
                    <mxGeometry x="390" y="430" width="90" height="40" as="geometry"/>
                </mxCell>
                <mxCell id="69" value="sub_id" style="ellipse;whiteSpace=wrap;html=1;align=center;fontStyle=4;fillColor=#76608a;strokeColor=#432D57;fontColor=#FFFFFF;" parent="1" vertex="1">
                    <mxGeometry x="1010" y="-250" width="80" height="35" as="geometry"/>
                </mxCell>
                <mxCell id="70" value="course_id" style="ellipse;whiteSpace=wrap;html=1;align=center;fontStyle=4;fillColor=#76608a;strokeColor=#432D57;fontColor=#FFFFFF;" parent="1" vertex="1">
                    <mxGeometry x="60" y="30" width="100" height="40" as="geometry"/>
                </mxCell>
                <mxCell id="71" value="assig_id" style="ellipse;whiteSpace=wrap;html=1;align=center;fontStyle=4;fillColor=#76608a;strokeColor=#432D57;fontColor=#FFFFFF;" parent="1" vertex="1">
                    <mxGeometry x="920" y="210" width="100" height="40" as="geometry"/>
                </mxCell>
                <mxCell id="72" value="description" style="ellipse;whiteSpace=wrap;html=1;align=center;fillColor=#76608a;strokeColor=#432D57;fontColor=#FFFFFF;" parent="1" vertex="1">
                    <mxGeometry x="5" y="145.01" width="100" height="40" as="geometry"/>
                </mxCell>
                <mxCell id="77" value="content_description" style="ellipse;whiteSpace=wrap;html=1;align=center;fillColor=#76608a;strokeColor=#432D57;fontColor=#FFFFFF;" parent="1" vertex="1">
                    <mxGeometry x="-70" y="515" width="110" height="40" as="geometry"/>
                </mxCell>
                <mxCell id="78" value="start_date" style="ellipse;whiteSpace=wrap;html=1;align=center;fillColor=#76608a;strokeColor=#432D57;fontColor=#FFFFFF;" parent="1" vertex="1">
                    <mxGeometry x="200" y="555" width="80" height="40" as="geometry"/>
                </mxCell>
                <mxCell id="79" value="end_date" style="ellipse;whiteSpace=wrap;html=1;align=center;fillColor=#76608a;strokeColor=#432D57;fontColor=#FFFFFF;" parent="1" vertex="1">
                    <mxGeometry x="300" y="550" width="80" height="45" as="geometry"/>
                </mxCell>
                <mxCell id="80" value="" style="endArrow=none;html=1;rounded=0;exitX=0.5;exitY=1;exitDx=0;exitDy=0;entryX=0.5;entryY=0;entryDx=0;entryDy=0;fillColor=#e1d5e7;strokeColor=#9673a6;fontColor=#FFFFFF;startArrow=none;" parent="1" source="28" target="71" edge="1">
                    <mxGeometry relative="1" as="geometry">
                        <mxPoint x="965" y="175" as="sourcePoint"/>
                        <mxPoint x="960" y="290" as="targetPoint"/>
                    </mxGeometry>
                </mxCell>
                <mxCell id="81" value="" style="endArrow=none;html=1;rounded=0;exitX=0.25;exitY=1;exitDx=0;exitDy=0;entryX=0.5;entryY=0;entryDx=0;entryDy=0;fillColor=#e1d5e7;strokeColor=#9673a6;fontColor=#FFFFFF;" parent="1" source="49" target="78" edge="1">
                    <mxGeometry relative="1" as="geometry">
                        <mxPoint x="270" y="510" as="sourcePoint"/>
                        <mxPoint x="430" y="510" as="targetPoint"/>
                    </mxGeometry>
                </mxCell>
                <mxCell id="82" value="" style="endArrow=none;html=1;rounded=0;exitX=0.75;exitY=1;exitDx=0;exitDy=0;entryX=0.5;entryY=0;entryDx=0;entryDy=0;fillColor=#e1d5e7;strokeColor=#9673a6;fontColor=#FFFFFF;" parent="1" source="49" target="79" edge="1">
                    <mxGeometry relative="1" as="geometry">
                        <mxPoint x="440" y="400" as="sourcePoint"/>
                        <mxPoint x="600" y="400" as="targetPoint"/>
                    </mxGeometry>
                </mxCell>
                <mxCell id="83" value="" style="endArrow=none;html=1;rounded=0;exitX=1;exitY=0.75;exitDx=0;exitDy=0;entryX=0.5;entryY=0;entryDx=0;entryDy=0;fillColor=#e1d5e7;strokeColor=#9673a6;fontColor=#FFFFFF;" parent="1" source="49" target="242" edge="1">
                    <mxGeometry relative="1" as="geometry">
                        <mxPoint x="440" y="400" as="sourcePoint"/>
                        <mxPoint x="386.37844334226247" y="505.7702995040181" as="targetPoint"/>
                    </mxGeometry>
                </mxCell>
                <mxCell id="84" value="" style="endArrow=none;html=1;rounded=0;exitX=1;exitY=0.25;exitDx=0;exitDy=0;entryX=0;entryY=0.5;entryDx=0;entryDy=0;fillColor=#e1d5e7;strokeColor=#9673a6;fontColor=#FFFFFF;" parent="1" source="49" target="68" edge="1">
                    <mxGeometry relative="1" as="geometry">
                        <mxPoint x="440" y="400" as="sourcePoint"/>
                        <mxPoint x="600" y="400" as="targetPoint"/>
                    </mxGeometry>
                </mxCell>
                <mxCell id="86" value="" style="endArrow=none;html=1;rounded=0;entryX=0.5;entryY=1;entryDx=0;entryDy=0;exitX=0.5;exitY=0;exitDx=0;exitDy=0;fillColor=#e1d5e7;strokeColor=#9673a6;fontColor=#FFFFFF;" parent="1" source="241" target="43" edge="1">
                    <mxGeometry relative="1" as="geometry">
                        <mxPoint x="100" y="550" as="sourcePoint"/>
                        <mxPoint x="240" y="539" as="targetPoint"/>
                    </mxGeometry>
                </mxCell>
                <mxCell id="87" value="" style="endArrow=none;html=1;rounded=0;exitX=0.5;exitY=0;exitDx=0;exitDy=0;fillColor=#e1d5e7;strokeColor=#9673a6;fontColor=#FFFFFF;" parent="1" source="77" target="43" edge="1">
                    <mxGeometry relative="1" as="geometry">
                        <mxPoint x="-120" y="480" as="sourcePoint"/>
                        <mxPoint x="40" y="480" as="targetPoint"/>
                    </mxGeometry>
                </mxCell>
                <mxCell id="88" value="" style="endArrow=none;html=1;rounded=0;entryX=0;entryY=0;entryDx=0;entryDy=0;exitX=1;exitY=1;exitDx=0;exitDy=0;fillColor=#e1d5e7;strokeColor=#9673a6;fontColor=#FFFFFF;" parent="1" source="32" target="249" edge="1">
                    <mxGeometry relative="1" as="geometry">
                        <mxPoint x="890" y="-130" as="sourcePoint"/>
                        <mxPoint x="1050" y="-100" as="targetPoint"/>
                    </mxGeometry>
                </mxCell>
                <mxCell id="89" value="" style="endArrow=none;html=1;rounded=0;exitX=1;exitY=0.5;exitDx=0;exitDy=0;entryX=0;entryY=1;entryDx=0;entryDy=0;fillColor=#e1d5e7;strokeColor=#9673a6;fontColor=#FFFFFF;" parent="1" source="32" target="248" edge="1">
                    <mxGeometry relative="1" as="geometry">
                        <mxPoint x="910" y="-170.5" as="sourcePoint"/>
                        <mxPoint x="1079.9999999999823" y="-180" as="targetPoint"/>
                        <Array as="points"/>
                    </mxGeometry>
                </mxCell>
                <mxCell id="90" value="" style="endArrow=none;html=1;rounded=0;exitX=0.688;exitY=0.05;exitDx=0;exitDy=0;exitPerimeter=0;entryX=0.5;entryY=1;entryDx=0;entryDy=0;fillColor=#e1d5e7;strokeColor=#9673a6;fontColor=#FFFFFF;" parent="1" source="32" target="69" edge="1">
                    <mxGeometry relative="1" as="geometry">
                        <mxPoint x="860" y="-230.5" as="sourcePoint"/>
                        <mxPoint x="1020" y="-230.5" as="targetPoint"/>
                    </mxGeometry>
                </mxCell>
                <mxCell id="91" value="" style="endArrow=none;html=1;rounded=0;entryX=0.25;entryY=1;entryDx=0;entryDy=0;exitX=0.5;exitY=0;exitDx=0;exitDy=0;fillColor=#e1d5e7;strokeColor=#9673a6;fontColor=#FFFFFF;" parent="1" source="243" target="28" edge="1">
                    <mxGeometry relative="1" as="geometry">
                        <mxPoint x="885.3553390593474" y="195.8578643762612" as="sourcePoint"/>
                        <mxPoint x="920" y="180" as="targetPoint"/>
                    </mxGeometry>
                </mxCell>
                <mxCell id="92" value="" style="endArrow=none;html=1;rounded=0;fillColor=#e1d5e7;strokeColor=#9673a6;fontColor=#FFFFFF;exitX=1;exitY=0.5;exitDx=0;exitDy=0;" parent="1" source="149" edge="1">
                    <mxGeometry relative="1" as="geometry">
                        <mxPoint x="240" y="-450.5" as="sourcePoint"/>
                        <mxPoint x="280" y="-452" as="targetPoint"/>
                    </mxGeometry>
                </mxCell>
                <mxCell id="93" value="type" style="ellipse;whiteSpace=wrap;html=1;align=center;fillColor=#76608a;strokeColor=#432D57;fontColor=#FFFFFF;" parent="1" vertex="1">
                    <mxGeometry x="280" y="-467.5" width="80" height="30" as="geometry"/>
                </mxCell>
                <mxCell id="94" value="" style="endArrow=none;html=1;rounded=0;exitX=1;exitY=0.5;exitDx=0;exitDy=0;entryX=0;entryY=0.5;entryDx=0;entryDy=0;fillColor=#e1d5e7;strokeColor=#9673a6;fontColor=#FFFFFF;" parent="1" source="95" target="149" edge="1">
                    <mxGeometry relative="1" as="geometry">
                        <mxPoint x="100" y="-450" as="sourcePoint"/>
                        <mxPoint x="140" y="-447.5" as="targetPoint"/>
                    </mxGeometry>
                </mxCell>
                <mxCell id="95" value="user_id" style="ellipse;whiteSpace=wrap;html=1;align=center;fontStyle=4;fillColor=#76608a;strokeColor=#432D57;fontColor=#FFFFFF;" parent="1" vertex="1">
                    <mxGeometry x="30" y="-470" width="75" height="35" as="geometry"/>
                </mxCell>
                <mxCell id="96" value="" style="endArrow=none;html=1;rounded=0;entryX=0.5;entryY=0;entryDx=0;entryDy=0;exitX=0.5;exitY=1;exitDx=0;exitDy=0;fillColor=#d5e8d4;strokeColor=#82b366;fontColor=#FFFFFF;startArrow=none;" parent="1" source="32" target="31" edge="1">
                    <mxGeometry relative="1" as="geometry">
                        <mxPoint x="975" y="-120" as="sourcePoint"/>
                        <mxPoint x="860" y="-60" as="targetPoint"/>
                    </mxGeometry>
                </mxCell>
                <mxCell id="97" value="N" style="resizable=0;html=1;whiteSpace=wrap;align=right;verticalAlign=bottom;fontColor=#FFFFFF;" parent="96" connectable="0" vertex="1">
                    <mxGeometry x="1" relative="1" as="geometry"/>
                </mxCell>
                <mxCell id="98" value="submission_date" style="ellipse;whiteSpace=wrap;html=1;align=center;fillColor=#76608a;strokeColor=#432D57;fontColor=#FFFFFF;" parent="1" vertex="1">
                    <mxGeometry x="1120" y="-135" width="110" height="40" as="geometry"/>
                </mxCell>
                <mxCell id="99" value="" style="endArrow=none;html=1;rounded=0;entryX=0;entryY=0.5;entryDx=0;entryDy=0;exitX=1;exitY=0.75;exitDx=0;exitDy=0;fillColor=#e1d5e7;strokeColor=#9673a6;fontColor=#FFFFFF;" parent="1" source="32" target="98" edge="1">
                    <mxGeometry relative="1" as="geometry">
                        <mxPoint x="1120" y="-125" as="sourcePoint"/>
                        <mxPoint x="1150" y="-110" as="targetPoint"/>
                    </mxGeometry>
                </mxCell>
                <mxCell id="100" value="" style="endArrow=none;html=1;rounded=0;exitX=1;exitY=1;exitDx=0;exitDy=0;entryX=0.5;entryY=0;entryDx=0;entryDy=0;fillColor=#e1d5e7;strokeColor=#9673a6;fontColor=#FFFFFF;" parent="1" source="28" target="101" edge="1">
                    <mxGeometry relative="1" as="geometry">
                        <mxPoint x="1120" y="140" as="sourcePoint"/>
                        <mxPoint x="1090" y="180" as="targetPoint"/>
                    </mxGeometry>
                </mxCell>
                <mxCell id="101" value="upload_date" style="ellipse;whiteSpace=wrap;html=1;align=center;fillColor=#76608a;strokeColor=#432D57;fontColor=#FFFFFF;" parent="1" vertex="1">
                    <mxGeometry x="1030" y="180" width="100" height="40" as="geometry"/>
                </mxCell>
                <mxCell id="102" value="" style="endArrow=none;html=1;rounded=0;exitX=1;exitY=0.5;exitDx=0;exitDy=0;entryX=0;entryY=0.5;entryDx=0;entryDy=0;fillColor=#e1d5e7;strokeColor=#9673a6;fontColor=#FFFFFF;" parent="1" source="28" target="103" edge="1">
                    <mxGeometry relative="1" as="geometry">
                        <mxPoint x="1050" y="130" as="sourcePoint"/>
                        <mxPoint x="1130" y="130" as="targetPoint"/>
                    </mxGeometry>
                </mxCell>
                <mxCell id="103" value="description" style="ellipse;whiteSpace=wrap;html=1;align=center;fillColor=#76608a;strokeColor=#432D57;fontColor=#FFFFFF;" parent="1" vertex="1">
                    <mxGeometry x="1080" y="107.5" width="100" height="40" as="geometry"/>
                </mxCell>
                <mxCell id="104" value="" style="endArrow=none;html=1;rounded=0;entryX=0.5;entryY=1;entryDx=0;entryDy=0;fillColor=#e1d5e7;strokeColor=#9673a6;fontColor=#FFFFFF;" parent="1" target="111" edge="1">
                    <mxGeometry relative="1" as="geometry">
                        <mxPoint x="320" y="448.9499999999998" as="sourcePoint"/>
                        <mxPoint x="340" y="390" as="targetPoint"/>
                    </mxGeometry>
                </mxCell>
                <mxCell id="105" value="" style="endArrow=none;html=1;rounded=0;exitX=1;exitY=0;exitDx=0;exitDy=0;fillColor=#e1d5e7;strokeColor=#9673a6;fontColor=#FFFFFF;" parent="1" source="28" target="106" edge="1">
                    <mxGeometry relative="1" as="geometry">
                        <mxPoint x="1020" y="60" as="sourcePoint"/>
                        <mxPoint x="1070" y="60" as="targetPoint"/>
                        <Array as="points"/>
                    </mxGeometry>
                </mxCell>
                <mxCell id="106" value="deadline" style="ellipse;whiteSpace=wrap;html=1;align=center;fillColor=#76608a;strokeColor=#432D57;fontColor=#FFFFFF;" parent="1" vertex="1">
                    <mxGeometry x="1040" y="40" width="100" height="40" as="geometry"/>
                </mxCell>
                <mxCell id="107" value="" style="endArrow=none;html=1;rounded=0;exitX=0.5;exitY=1;exitDx=0;exitDy=0;entryX=0.5;entryY=0;entryDx=0;entryDy=0;fillColor=#d5e8d4;strokeColor=#82b366;fontColor=#FFFFFF;startArrow=none;" parent="1" edge="1">
                    <mxGeometry relative="1" as="geometry">
                        <mxPoint x="190" y="-195" as="sourcePoint"/>
                        <mxPoint x="190" y="-105" as="targetPoint"/>
                    </mxGeometry>
                </mxCell>
                <mxCell id="109" value="" style="endArrow=none;html=1;rounded=0;exitX=0.5;exitY=1;exitDx=0;exitDy=0;entryX=0.5;entryY=0;entryDx=0;entryDy=0;fillColor=#d5e8d4;strokeColor=#82b366;fontColor=#FFFFFF;" parent="1" target="12" edge="1">
                    <mxGeometry relative="1" as="geometry">
                        <mxPoint x="478.9499999999998" y="-280" as="sourcePoint"/>
                        <mxPoint x="478.95" y="-175" as="targetPoint"/>
                    </mxGeometry>
                </mxCell>
                <mxCell id="110" value="M" style="edgeLabel;html=1;align=center;verticalAlign=middle;resizable=0;points=[];fontColor=#FFFFFF;" parent="109" vertex="1" connectable="0">
                    <mxGeometry x="0.652" y="4" relative="1" as="geometry">
                        <mxPoint as="offset"/>
                    </mxGeometry>
                </mxCell>
                <mxCell id="111" value="session_duration" style="ellipse;whiteSpace=wrap;html=1;align=center;fillColor=#76608a;strokeColor=#432D57;fontColor=#FFFFFF;" parent="1" vertex="1">
                    <mxGeometry x="315" y="380" width="105" height="35" as="geometry"/>
                </mxCell>
                <mxCell id="112" value="nr_of_sessions" style="ellipse;whiteSpace=wrap;html=1;align=center;fillColor=#76608a;strokeColor=#432D57;fontColor=#FFFFFF;" parent="1" vertex="1">
                    <mxGeometry x="460" y="475" width="110" height="40" as="geometry"/>
                </mxCell>
                <mxCell id="113" value="" style="endArrow=none;html=1;rounded=0;entryX=0;entryY=0.5;entryDx=0;entryDy=0;exitX=1;exitY=0.5;exitDx=0;exitDy=0;fillColor=#e1d5e7;strokeColor=#9673a6;fontColor=#FFFFFF;" parent="1" source="49" target="112" edge="1">
                    <mxGeometry relative="1" as="geometry">
                        <mxPoint x="340" y="474.47" as="sourcePoint"/>
                        <mxPoint x="500" y="474.47" as="targetPoint"/>
                    </mxGeometry>
                </mxCell>
                <mxCell id="114" value="" style="endArrow=none;html=1;rounded=0;exitX=0;exitY=0.25;exitDx=0;exitDy=0;entryX=0.5;entryY=0;entryDx=0;entryDy=0;fillColor=#e1d5e7;strokeColor=#9673A6;fontColor=#FFFFFF;" parent="1" source="43" target="115" edge="1">
                    <mxGeometry relative="1" as="geometry">
                        <mxPoint x="30" y="470" as="sourcePoint"/>
                        <mxPoint x="-115" y="397.5" as="targetPoint"/>
                    </mxGeometry>
                </mxCell>
                <mxCell id="115" value="upload_date" style="ellipse;whiteSpace=wrap;html=1;align=center;fillColor=#76608a;strokeColor=#432D57;fontColor=#FFFFFF;" parent="1" vertex="1">
                    <mxGeometry x="-90" y="450" width="100" height="40" as="geometry"/>
                </mxCell>
                <mxCell id="116" value="" style="endArrow=none;html=1;rounded=0;entryX=0.5;entryY=0;entryDx=0;entryDy=0;fillColor=#e1d5e7;strokeColor=#9673a6;fontColor=#FFFFFF;" parent="1" source="43" target="117" edge="1">
                    <mxGeometry relative="1" as="geometry">
                        <mxPoint x="51.599999999999994" y="450" as="sourcePoint"/>
                        <mxPoint x="-90" y="371.45000000000005" as="targetPoint"/>
                    </mxGeometry>
                </mxCell>
                <mxCell id="117" value="update_date" style="ellipse;whiteSpace=wrap;html=1;align=center;fillColor=#76608a;strokeColor=#432D57;fontColor=#FFFFFF;" parent="1" vertex="1">
                    <mxGeometry x="-40" y="377.50000000000006" width="100" height="40" as="geometry"/>
                </mxCell>
                <mxCell id="118" value="content_id" style="ellipse;whiteSpace=wrap;html=1;align=center;fontStyle=4;fillColor=#76608a;strokeColor=#432D57;fontColor=#FFFFFF;" parent="1" vertex="1">
                    <mxGeometry x="120" y="371.45000000000005" width="100" height="40" as="geometry"/>
                </mxCell>
                <mxCell id="119" value="" style="endArrow=none;html=1;rounded=0;entryX=0.75;entryY=0;entryDx=0;entryDy=0;exitX=0.5;exitY=1;exitDx=0;exitDy=0;fillColor=#e1d5e7;strokeColor=#9673a6;fontColor=#FFFFFF;" parent="1" source="118" target="43" edge="1">
                    <mxGeometry relative="1" as="geometry">
                        <mxPoint x="143" y="415" as="sourcePoint"/>
                        <mxPoint x="60" y="336" as="targetPoint"/>
                    </mxGeometry>
                </mxCell>
                <mxCell id="120" value="" style="endArrow=none;html=1;rounded=0;exitX=1;exitY=0.5;exitDx=0;exitDy=0;entryX=0;entryY=0.5;entryDx=0;entryDy=0;fillColor=#e1d5e7;strokeColor=#9673a6;fontColor=#FFFFFF;" parent="1" source="50" target="121" edge="1">
                    <mxGeometry relative="1" as="geometry">
                        <mxPoint x="745" y="-69.5" as="sourcePoint"/>
                        <mxPoint x="850" y="-67.5" as="targetPoint"/>
                    </mxGeometry>
                </mxCell>
                <mxCell id="121" value="description" style="ellipse;whiteSpace=wrap;html=1;align=center;fillColor=#76608a;strokeColor=#432D57;fontColor=#FFFFFF;" parent="1" vertex="1">
                    <mxGeometry x="770" y="-95" width="80" height="40" as="geometry"/>
                </mxCell>
                <mxCell id="122" value="" style="endArrow=none;html=1;rounded=0;exitX=0.5;exitY=1;exitDx=0;exitDy=0;entryX=0.5;entryY=0;entryDx=0;entryDy=0;fillColor=#e1d5e7;strokeColor=#9673a6;fontColor=#FFFFFF;" parent="1" source="50" target="123" edge="1">
                    <mxGeometry relative="1" as="geometry">
                        <mxPoint x="600" y="0.5" as="sourcePoint"/>
                        <mxPoint x="705" y="2.5" as="targetPoint"/>
                    </mxGeometry>
                </mxCell>
                <mxCell id="123" value="ranking" style="ellipse;whiteSpace=wrap;html=1;align=center;fillColor=#76608a;strokeColor=#432D57;fontColor=#FFFFFF;" parent="1" vertex="1">
                    <mxGeometry x="635" y="-10" width="90" height="40" as="geometry"/>
                </mxCell>
                <mxCell id="124" value="" style="endArrow=none;html=1;rounded=0;exitX=0.5;exitY=1;exitDx=0;exitDy=0;entryX=1;entryY=0.25;entryDx=0;entryDy=0;fillColor=#e1d5e7;strokeColor=#9673a6;fontColor=#FFFFFF;" parent="1" source="125" target="11" edge="1">
                    <mxGeometry relative="1" as="geometry">
                        <mxPoint x="349.00000000000045" y="80.84000000000015" as="sourcePoint"/>
                        <mxPoint x="158" y="108" as="targetPoint"/>
                    </mxGeometry>
                </mxCell>
                <mxCell id="125" value="title" style="ellipse;whiteSpace=wrap;html=1;align=center;fillColor=#76608a;strokeColor=#432D57;fontColor=#FFFFFF;" parent="1" vertex="1">
                    <mxGeometry x="290" y="50" width="100" height="40" as="geometry"/>
                </mxCell>
                <mxCell id="128" value="" style="endArrow=none;html=1;rounded=0;entryX=0;entryY=0;entryDx=0;entryDy=0;fillColor=#e1d5e7;strokeColor=#9673a6;exitX=0.98;exitY=0.702;exitDx=0;exitDy=0;exitPerimeter=0;fontColor=#FFFFFF;" parent="1" source="129" target="149" edge="1">
                    <mxGeometry relative="1" as="geometry">
                        <mxPoint x="50" y="-510" as="sourcePoint"/>
                        <mxPoint x="140" y="-467.5" as="targetPoint"/>
                    </mxGeometry>
                </mxCell>
                <mxCell id="129" value="last_logged" style="ellipse;whiteSpace=wrap;html=1;align=center;fillColor=#76608a;strokeColor=#432D57;fontColor=#FFFFFF;" parent="1" vertex="1">
                    <mxGeometry y="-522.5" width="80" height="35" as="geometry"/>
                </mxCell>
                <mxCell id="130" value="specialization" style="ellipse;shape=doubleEllipse;margin=3;whiteSpace=wrap;html=1;align=center;fillColor=#76608a;strokeColor=#432D57;fontColor=#FFFFFF;" parent="1" vertex="1">
                    <mxGeometry x="23.75" y="-270" width="87.5" height="35" as="geometry"/>
                </mxCell>
                <mxCell id="131" value="" style="endArrow=none;html=1;rounded=0;exitX=1;exitY=0.5;exitDx=0;exitDy=0;entryX=0;entryY=0.5;entryDx=0;entryDy=0;fillColor=#e1d5e7;strokeColor=#9673a6;fontColor=#FFFFFF;" parent="1" source="130" target="147" edge="1">
                    <mxGeometry relative="1" as="geometry">
                        <mxPoint x="230" y="-260" as="sourcePoint"/>
                        <mxPoint x="390" y="-260" as="targetPoint"/>
                    </mxGeometry>
                </mxCell>
                <mxCell id="132" value="feedback" style="ellipse;whiteSpace=wrap;html=1;align=center;fillColor=#76608a;strokeColor=#432D57;fontColor=#FFFFFF;" parent="1" vertex="1">
                    <mxGeometry x="345" y="-145" width="80" height="40" as="geometry"/>
                </mxCell>
                <mxCell id="133" value="" style="endArrow=none;html=1;rounded=0;entryX=0;entryY=1;entryDx=0;entryDy=0;exitX=1;exitY=0.5;exitDx=0;exitDy=0;fillColor=#e1d5e7;strokeColor=#9673a6;fontColor=#FFFFFF;" parent="1" source="132" target="12" edge="1">
                    <mxGeometry relative="1" as="geometry">
                        <mxPoint x="320" y="-100" as="sourcePoint"/>
                        <mxPoint x="480" y="-100" as="targetPoint"/>
                    </mxGeometry>
                </mxCell>
                <mxCell id="134" value="" style="endArrow=none;html=1;rounded=0;exitX=1;exitY=0.5;exitDx=0;exitDy=0;entryX=0;entryY=0.5;entryDx=0;entryDy=0;fillColor=#e1d5e7;strokeColor=#9673a6;fontColor=#FFFFFF;" parent="1" source="147" target="137" edge="1">
                    <mxGeometry relative="1" as="geometry">
                        <mxPoint x="255.5" y="-230.5" as="sourcePoint"/>
                        <mxPoint x="300" y="-230" as="targetPoint"/>
                    </mxGeometry>
                </mxCell>
                <mxCell id="135" value="" style="endArrow=none;html=1;rounded=0;exitX=0.5;exitY=0;exitDx=0;exitDy=0;fillColor=#e1d5e7;strokeColor=#9673a6;fontColor=#FFFFFF;" parent="1" source="9" target="139" edge="1">
                    <mxGeometry relative="1" as="geometry">
                        <mxPoint x="450" y="-360" as="sourcePoint"/>
                        <mxPoint x="610" y="-360" as="targetPoint"/>
                    </mxGeometry>
                </mxCell>
                <mxCell id="136" value="" style="endArrow=none;html=1;rounded=0;entryX=0.5;entryY=0;entryDx=0;entryDy=0;exitX=1;exitY=1;exitDx=0;exitDy=0;fillColor=#e1d5e7;strokeColor=#9673a6;fontColor=#FFFFFF;" parent="1" source="138" target="8" edge="1">
                    <mxGeometry relative="1" as="geometry">
                        <mxPoint x="-210" y="-330" as="sourcePoint"/>
                        <mxPoint x="-50" y="-330" as="targetPoint"/>
                    </mxGeometry>
                </mxCell>
                <mxCell id="137" value="inst_id" style="ellipse;whiteSpace=wrap;html=1;align=center;fillColor=#76608a;strokeColor=#432D57;fontColor=#FFFFFF;" parent="1" vertex="1">
                    <mxGeometry x="291" y="-250" width="82" height="30" as="geometry"/>
                </mxCell>
                <mxCell id="138" value="admin_id" style="ellipse;whiteSpace=wrap;html=1;align=center;fillColor=#76608a;strokeColor=#432D57;fontColor=#FFFFFF;" parent="1" vertex="1">
                    <mxGeometry x="-200" y="-382.5" width="80" height="35" as="geometry"/>
                </mxCell>
                <mxCell id="139" value="std_id" style="ellipse;whiteSpace=wrap;html=1;align=center;fillColor=#76608a;strokeColor=#432D57;fontColor=#FFFFFF;" parent="1" vertex="1">
                    <mxGeometry x="455" y="-380" width="100" height="30" as="geometry"/>
                </mxCell>
                <mxCell id="140" value="teaches" style="shape=rhombus;perimeter=rhombusPerimeter;whiteSpace=wrap;html=1;align=center;fillColor=#6d8764;strokeColor=#3A5431;fontColor=#FFFFFF;" parent="1" vertex="1">
                    <mxGeometry x="130" y="-105" width="120" height="60" as="geometry"/>
                </mxCell>
                <mxCell id="141" value="manges" style="shape=rhombus;perimeter=rhombusPerimeter;whiteSpace=wrap;html=1;align=center;fillColor=#6d8764;strokeColor=#3A5431;fontColor=#FFFFFF;" parent="1" vertex="1">
                    <mxGeometry x="-150" y="-100" width="120" height="60" as="geometry"/>
                </mxCell>
                <mxCell id="142" value="enrolls" style="shape=rhombus;perimeter=rhombusPerimeter;whiteSpace=wrap;html=1;align=center;fillColor=#6d8764;strokeColor=#3A5431;fontColor=#FFFFFF;" parent="1" vertex="1">
                    <mxGeometry x="425" y="-100" width="110" height="50" as="geometry"/>
                </mxCell>
                <mxCell id="143" value="contains" style="shape=rhombus;perimeter=rhombusPerimeter;whiteSpace=wrap;html=1;align=center;fillColor=#6d8764;strokeColor=#3A5431;fontColor=#FFFFFF;" parent="1" vertex="1">
                    <mxGeometry x="650" y="100" width="110" height="55" as="geometry"/>
                </mxCell>
                <mxCell id="144" value="turns in&amp;nbsp;" style="shape=rhombus;perimeter=rhombusPerimeter;whiteSpace=wrap;html=1;align=center;fillColor=#6d8764;strokeColor=#3A5431;fontColor=#FFFFFF;" parent="1" vertex="1">
                    <mxGeometry x="910" y="-330" width="120" height="60" as="geometry"/>
                </mxCell>
                <mxCell id="145" value="" style="endArrow=none;html=1;rounded=0;exitX=0.5;exitY=1;exitDx=0;exitDy=0;entryX=0.5;entryY=0;entryDx=0;entryDy=0;fillColor=#d5e8d4;strokeColor=#82b366;fontColor=#FFFFFF;startArrow=none;" parent="1" source="147" edge="1">
                    <mxGeometry relative="1" as="geometry">
                        <mxPoint x="190" y="-210" as="sourcePoint"/>
                        <mxPoint x="190" y="-235" as="targetPoint"/>
                    </mxGeometry>
                </mxCell>
                <mxCell id="146" value="" style="endArrow=none;html=1;rounded=0;exitX=0.5;exitY=1;exitDx=0;exitDy=0;entryX=0.5;entryY=0;entryDx=0;entryDy=0;fillColor=#d5e8d4;strokeColor=#82b366;fontColor=#FFFFFF;" parent="1" target="147" edge="1">
                    <mxGeometry relative="1" as="geometry">
                        <mxPoint x="190" y="-210" as="sourcePoint"/>
                        <mxPoint x="190" y="-235" as="targetPoint"/>
                    </mxGeometry>
                </mxCell>
                <mxCell id="147" value="Instructor" style="whiteSpace=wrap;html=1;align=center;fillColor=#647687;strokeColor=#314354;fontColor=#ffffff;rounded=1;" parent="1" vertex="1">
                    <mxGeometry x="140" y="-250" width="100" height="40" as="geometry"/>
                </mxCell>
                <mxCell id="148" value="" style="endArrow=none;html=1;rounded=0;exitX=0.5;exitY=1;exitDx=0;exitDy=0;entryX=0.5;entryY=0;entryDx=0;entryDy=0;fillColor=#f8cecc;strokeColor=#b85450;fontColor=#FFFFFF;" parent="1" target="149" edge="1">
                    <mxGeometry relative="1" as="geometry">
                        <mxPoint x="190" y="-427.5" as="sourcePoint"/>
                        <mxPoint x="190" y="-380" as="targetPoint"/>
                    </mxGeometry>
                </mxCell>
                <mxCell id="149" value="User" style="whiteSpace=wrap;html=1;align=center;fillColor=#647687;strokeColor=#314354;rounded=1;" parent="1" vertex="1">
                    <mxGeometry x="140" y="-487.5" width="100" height="40" as="geometry"/>
                </mxCell>
                <mxCell id="152" value="Discount" style="whiteSpace=wrap;html=1;align=center;fillColor=#647687;strokeColor=#314354;fontColor=#ffffff;rounded=1;" parent="1" vertex="1">
                    <mxGeometry x="-400" y="547.5" width="100" height="50" as="geometry"/>
                </mxCell>
                <mxCell id="154" value="" style="endArrow=none;html=1;rounded=0;exitX=0;exitY=0.5;exitDx=0;exitDy=0;fillColor=#d5e8d4;strokeColor=#82b366;fontColor=#FFFFFF;entryX=1;entryY=0.5;entryDx=0;entryDy=0;" parent="1" source="11" target="156" edge="1">
                    <mxGeometry relative="1" as="geometry">
                        <mxPoint x="-160.52999999999997" y="42.5" as="sourcePoint"/>
                        <mxPoint x="-160" y="128" as="targetPoint"/>
                    </mxGeometry>
                </mxCell>
                <mxCell id="155" value="1" style="edgeLabel;html=1;align=center;verticalAlign=middle;resizable=0;points=[];fontColor=#FFFFFF;" parent="154" vertex="1" connectable="0">
                    <mxGeometry x="0.744" relative="1" as="geometry">
                        <mxPoint as="offset"/>
                    </mxGeometry>
                </mxCell>
                <mxCell id="156" value="includes" style="shape=rhombus;perimeter=rhombusPerimeter;whiteSpace=wrap;html=1;align=center;fillColor=#6d8764;strokeColor=#3A5431;fontColor=#FFFFFF;" parent="1" vertex="1">
                    <mxGeometry x="-260" y="97.5" width="120" height="60" as="geometry"/>
                </mxCell>
                <mxCell id="164" value="" style="endArrow=none;html=1;rounded=0;fillColor=#d5e8d4;strokeColor=#82b366;fontColor=#FFFFFF;entryX=0;entryY=0.5;entryDx=0;entryDy=0;exitX=0.669;exitY=-0.07;exitDx=0;exitDy=0;exitPerimeter=0;" parent="1" source="236" target="156" edge="1">
                    <mxGeometry relative="1" as="geometry">
                        <mxPoint x="-325" y="201.8800000000001" as="sourcePoint"/>
                        <mxPoint x="-322.5" y="250" as="targetPoint"/>
                        <Array as="points">
                            <mxPoint x="-326" y="128"/>
                        </Array>
                    </mxGeometry>
                </mxCell>
                <mxCell id="165" value="N" style="edgeLabel;html=1;align=center;verticalAlign=middle;resizable=0;points=[];fontColor=#FFFFFF;" parent="164" vertex="1" connectable="0">
                    <mxGeometry x="0.744" relative="1" as="geometry">
                        <mxPoint as="offset"/>
                    </mxGeometry>
                </mxCell>
                <mxCell id="173" value="discount_name" style="ellipse;whiteSpace=wrap;html=1;align=center;labelBackgroundColor=none;direction=east;fillColor=#76608a;fontColor=#ffffff;strokeColor=#432D57;" parent="1" vertex="1">
                    <mxGeometry x="-282.5" y="630" width="100" height="40" as="geometry"/>
                </mxCell>
                <mxCell id="174" value="start_date" style="ellipse;whiteSpace=wrap;html=1;align=center;labelBackgroundColor=none;fillColor=#76608a;fontColor=#ffffff;strokeColor=#432D57;" parent="1" vertex="1">
                    <mxGeometry x="-490" y="507.5" width="90" height="40" as="geometry"/>
                </mxCell>
                <mxCell id="176" value="discount_rate" style="ellipse;whiteSpace=wrap;html=1;align=center;labelBackgroundColor=none;direction=west;fillColor=#76608a;fontColor=#ffffff;strokeColor=#432D57;" parent="1" vertex="1">
                    <mxGeometry x="-402.5" y="640" width="105" height="40" as="geometry"/>
                </mxCell>
                <mxCell id="177" value="&lt;u&gt;discount_id&lt;/u&gt;" style="ellipse;whiteSpace=wrap;html=1;align=center;labelBackgroundColor=none;direction=east;fillColor=#76608a;fontColor=#ffffff;strokeColor=#432D57;" parent="1" vertex="1">
                    <mxGeometry x="-272.5" y="547.5" width="90" height="40" as="geometry"/>
                </mxCell>
                <mxCell id="178" value="" style="endArrow=none;html=1;rounded=0;entryX=0.5;entryY=1;entryDx=0;entryDy=0;exitX=0.5;exitY=1;exitDx=0;exitDy=0;fillColor=#76608a;strokeColor=#9673A6;" parent="1" source="152" target="176" edge="1">
                    <mxGeometry relative="1" as="geometry">
                        <mxPoint x="-682.5" y="431.25" as="sourcePoint"/>
                        <mxPoint x="-652.5" y="391.25" as="targetPoint"/>
                    </mxGeometry>
                </mxCell>
                <mxCell id="179" value="" style="endArrow=none;html=1;rounded=0;entryX=0;entryY=0.5;entryDx=0;entryDy=0;exitX=1;exitY=0.5;exitDx=0;exitDy=0;fillColor=#76608a;strokeColor=#9673A6;" parent="1" source="152" target="177" edge="1">
                    <mxGeometry relative="1" as="geometry">
                        <mxPoint x="-632.5" y="441.25" as="sourcePoint"/>
                        <mxPoint x="-677.5" y="384.25" as="targetPoint"/>
                    </mxGeometry>
                </mxCell>
                <mxCell id="180" value="" style="endArrow=none;html=1;rounded=0;entryX=0.5;entryY=0;entryDx=0;entryDy=0;exitX=1;exitY=1;exitDx=0;exitDy=0;fillColor=#76608a;strokeColor=#9673A6;" parent="1" source="152" target="173" edge="1">
                    <mxGeometry relative="1" as="geometry">
                        <mxPoint x="-622.5" y="452.5" as="sourcePoint"/>
                        <mxPoint x="-667.5" y="394.25" as="targetPoint"/>
                    </mxGeometry>
                </mxCell>
                <mxCell id="181" value="" style="endArrow=none;html=1;rounded=0;exitX=0;exitY=0.25;exitDx=0;exitDy=0;fillColor=#76608a;strokeColor=#9673A6;" parent="1" source="152" target="174" edge="1">
                    <mxGeometry relative="1" as="geometry">
                        <mxPoint x="-632.5" y="471.25" as="sourcePoint"/>
                        <mxPoint x="-657.5" y="404.25" as="targetPoint"/>
                    </mxGeometry>
                </mxCell>
                <mxCell id="186" value="end_date" style="ellipse;whiteSpace=wrap;html=1;align=center;labelBackgroundColor=none;fillColor=#76608a;fontColor=#ffffff;strokeColor=#432D57;" parent="1" vertex="1">
                    <mxGeometry x="-520" y="570" width="80" height="40" as="geometry"/>
                </mxCell>
                <mxCell id="187" value="" style="endArrow=none;html=1;rounded=0;entryX=1;entryY=0.5;entryDx=0;entryDy=0;exitX=0;exitY=0.75;exitDx=0;exitDy=0;fillColor=#76608a;strokeColor=#9673A6;" parent="1" source="152" target="186" edge="1">
                    <mxGeometry relative="1" as="geometry">
                        <mxPoint x="-442.5" y="592.5" as="sourcePoint"/>
                        <mxPoint x="-357.5" y="545.5" as="targetPoint"/>
                    </mxGeometry>
                </mxCell>
                <mxCell id="189" value="" style="endArrow=none;html=1;rounded=0;exitX=0.25;exitY=1;exitDx=0;exitDy=0;fillColor=#d5e8d4;strokeColor=#82b366;fontColor=#FFFFFF;entryX=0.5;entryY=0;entryDx=0;entryDy=0;" parent="1" source="8" target="191" edge="1">
                    <mxGeometry relative="1" as="geometry">
                        <mxPoint x="-250" y="-265" as="sourcePoint"/>
                        <mxPoint x="-440" y="-140" as="targetPoint"/>
                        <Array as="points">
                            <mxPoint x="-115" y="-170"/>
                            <mxPoint x="-115" y="-140"/>
                            <mxPoint x="-320" y="-140"/>
                        </Array>
                    </mxGeometry>
                </mxCell>
                <mxCell id="190" value="1" style="edgeLabel;html=1;align=center;verticalAlign=middle;resizable=0;points=[];fontColor=#FFFFFF;" parent="189" vertex="1" connectable="0">
                    <mxGeometry x="0.744" relative="1" as="geometry">
                        <mxPoint as="offset"/>
                    </mxGeometry>
                </mxCell>
                <mxCell id="191" value="takes" style="shape=rhombus;perimeter=rhombusPerimeter;whiteSpace=wrap;html=1;align=center;fillColor=#6d8764;strokeColor=#3A5431;fontColor=#FFFFFF;" parent="1" vertex="1">
                    <mxGeometry x="-380" y="-50" width="120" height="60" as="geometry"/>
                </mxCell>
                <mxCell id="192" value="" style="endArrow=none;html=1;rounded=0;fillColor=#d5e8d4;strokeColor=#82b366;fontColor=#FFFFFF;entryX=0.5;entryY=1;entryDx=0;entryDy=0;" parent="1" target="191" edge="1">
                    <mxGeometry relative="1" as="geometry">
                        <mxPoint x="-365" y="200" as="sourcePoint"/>
                        <mxPoint x="-322.5000000000002" y="90" as="targetPoint"/>
                        <Array as="points">
                            <mxPoint x="-365" y="70"/>
                            <mxPoint x="-320" y="70"/>
                        </Array>
                    </mxGeometry>
                </mxCell>
                <mxCell id="193" value="N" style="edgeLabel;html=1;align=center;verticalAlign=middle;resizable=0;points=[];fontColor=#FFFFFF;" parent="192" vertex="1" connectable="0">
                    <mxGeometry x="0.744" relative="1" as="geometry">
                        <mxPoint as="offset"/>
                    </mxGeometry>
                </mxCell>
                <mxCell id="195" value="" style="endArrow=none;html=1;rounded=0;entryX=0.5;entryY=1;entryDx=0;entryDy=0;exitX=0.75;exitY=0;exitDx=0;exitDy=0;fillColor=#76608a;strokeColor=#9673A6;" parent="1" source="152" target="237" edge="1">
                    <mxGeometry relative="1" as="geometry">
                        <mxPoint x="-317.5" y="522.5" as="sourcePoint"/>
                        <mxPoint x="-282.5" y="522.5" as="targetPoint"/>
                    </mxGeometry>
                </mxCell>
                <mxCell id="203" value="" style="endArrow=none;html=1;rounded=0;exitX=1;exitY=0.5;exitDx=0;exitDy=0;entryX=0;entryY=0.5;entryDx=0;entryDy=0;fillColor=#e1d5e7;strokeColor=#9673a6;" parent="1" source="236" target="210" edge="1">
                    <mxGeometry relative="1" as="geometry">
                        <mxPoint x="-300" y="221.8800000000001" as="sourcePoint"/>
                        <mxPoint x="-247.5" y="191.88" as="targetPoint"/>
                    </mxGeometry>
                </mxCell>
                <mxCell id="204" value="" style="endArrow=none;html=1;rounded=0;entryX=0.25;entryY=1;entryDx=0;entryDy=0;exitX=0.5;exitY=0;exitDx=0;exitDy=0;fillColor=#e1d5e7;strokeColor=#9673a6;" parent="1" source="209" target="236" edge="1">
                    <mxGeometry relative="1" as="geometry">
                        <mxPoint x="-467.5" y="281.88" as="sourcePoint"/>
                        <mxPoint x="-350" y="241.8800000000001" as="targetPoint"/>
                    </mxGeometry>
                </mxCell>
                <mxCell id="205" value="" style="endArrow=none;html=1;rounded=0;entryX=0;entryY=0.5;entryDx=0;entryDy=0;exitX=1;exitY=1;exitDx=0;exitDy=0;fillColor=#e1d5e7;strokeColor=#9673a6;" parent="1" source="230" target="236" edge="1">
                    <mxGeometry relative="1" as="geometry">
                        <mxPoint x="-415.0999999999999" y="170.09125000000017" as="sourcePoint"/>
                        <mxPoint x="-375" y="201.8800000000001" as="targetPoint"/>
                    </mxGeometry>
                </mxCell>
                <mxCell id="206" value="" style="endArrow=none;html=1;rounded=0;exitX=0.75;exitY=1;exitDx=0;exitDy=0;entryX=0;entryY=0;entryDx=0;entryDy=0;fillColor=#e1d5e7;strokeColor=#9673a6;" parent="1" source="236" target="214" edge="1">
                    <mxGeometry relative="1" as="geometry">
                        <mxPoint x="-300" y="241.8800000000001" as="sourcePoint"/>
                        <mxPoint x="-252.5" y="261.88" as="targetPoint"/>
                    </mxGeometry>
                </mxCell>
                <mxCell id="207" value="" style="endArrow=none;html=1;rounded=0;entryX=0;entryY=0.75;entryDx=0;entryDy=0;exitX=1;exitY=0.5;exitDx=0;exitDy=0;fillColor=#e1d5e7;strokeColor=#9673a6;" parent="1" source="208" target="236" edge="1">
                    <mxGeometry relative="1" as="geometry">
                        <mxPoint x="-477.5" y="231.88" as="sourcePoint"/>
                        <mxPoint x="-400" y="221.8800000000001" as="targetPoint"/>
                    </mxGeometry>
                </mxCell>
                <mxCell id="208" value="due_date" style="ellipse;whiteSpace=wrap;html=1;align=center;fillColor=#76608a;strokeColor=#432D57;fontColor=#ffffff;" parent="1" vertex="1">
                    <mxGeometry x="-505" y="232.5" width="80" height="40" as="geometry"/>
                </mxCell>
                <mxCell id="209" value="payment_method" style="ellipse;whiteSpace=wrap;html=1;align=center;fillColor=#76608a;strokeColor=#432D57;fontColor=#ffffff;" parent="1" vertex="1">
                    <mxGeometry x="-470" y="280" width="107.5" height="40" as="geometry"/>
                </mxCell>
                <mxCell id="210" value="&lt;u&gt;payment_id&lt;/u&gt;" style="ellipse;whiteSpace=wrap;html=1;align=center;fillColor=#76608a;strokeColor=#432D57;fontColor=#ffffff;" parent="1" vertex="1">
                    <mxGeometry x="-267.5" y="208.13" width="85" height="33.75" as="geometry"/>
                </mxCell>
                <mxCell id="214" value="discount_id" style="ellipse;whiteSpace=wrap;html=1;align=center;fillColor=#76608a;strokeColor=#432D57;fontColor=#ffffff;" parent="1" vertex="1">
                    <mxGeometry x="-321.25" y="260" width="100" height="40" as="geometry"/>
                </mxCell>
                <mxCell id="215" value="" style="endArrow=none;html=1;rounded=0;fillColor=#e1d5e7;strokeColor=#9673a6;exitX=0.869;exitY=0.01;exitDx=0;exitDy=0;entryX=0.5;entryY=1;entryDx=0;entryDy=0;exitPerimeter=0;" parent="1" source="236" target="238" edge="1">
                    <mxGeometry relative="1" as="geometry">
                        <mxPoint x="-325" y="201.8800000000001" as="sourcePoint"/>
                        <mxPoint x="-277.5" y="178.76" as="targetPoint"/>
                    </mxGeometry>
                </mxCell>
                <mxCell id="224" value="" style="endArrow=none;html=1;rounded=0;exitX=0.5;exitY=1;exitDx=0;exitDy=0;fillColor=#60a917;strokeColor=#2D7600;entryX=0.5;entryY=0;entryDx=0;entryDy=0;" parent="1" target="226" edge="1">
                    <mxGeometry relative="1" as="geometry">
                        <mxPoint x="-350" y="241.8800000000001" as="sourcePoint"/>
                        <mxPoint x="-350" y="360" as="targetPoint"/>
                    </mxGeometry>
                </mxCell>
                <mxCell id="225" value="1" style="resizable=0;html=1;align=right;verticalAlign=bottom;" parent="224" connectable="0" vertex="1">
                    <mxGeometry x="1" relative="1" as="geometry"/>
                </mxCell>
                <mxCell id="226" value="includes" style="shape=rhombus;perimeter=rhombusPerimeter;whiteSpace=wrap;html=1;align=center;fillColor=#6d8764;strokeColor=#3A5431;fontColor=#FFFFFF;" parent="1" vertex="1">
                    <mxGeometry x="-410" y="340" width="120" height="60" as="geometry"/>
                </mxCell>
                <mxCell id="227" value="" style="endArrow=none;html=1;rounded=0;exitX=0.5;exitY=0;exitDx=0;exitDy=0;fillColor=#60a917;strokeColor=#2D7600;entryX=0.5;entryY=1;entryDx=0;entryDy=0;" parent="1" source="152" target="226" edge="1">
                    <mxGeometry relative="1" as="geometry">
                        <mxPoint x="-278.09000000000003" y="411.4500000000001" as="sourcePoint"/>
                        <mxPoint x="-278.09000000000003" y="509.57" as="targetPoint"/>
                    </mxGeometry>
                </mxCell>
                <mxCell id="229" value="1" style="edgeLabel;html=1;align=center;verticalAlign=middle;resizable=0;points=[];" parent="227" vertex="1" connectable="0">
                    <mxGeometry x="0.4555" y="5" relative="1" as="geometry">
                        <mxPoint as="offset"/>
                    </mxGeometry>
                </mxCell>
                <mxCell id="230" value="price" style="ellipse;whiteSpace=wrap;html=1;align=center;fillColor=#76608a;strokeColor=#432D57;fontColor=#ffffff;" parent="1" vertex="1">
                    <mxGeometry x="-508.75" y="180" width="87.5" height="40" as="geometry"/>
                </mxCell>
                <mxCell id="231" value="" style="endArrow=none;html=1;rounded=0;entryX=0.5;entryY=0;entryDx=0;entryDy=0;fillColor=#e1d5e7;strokeColor=#9673a6;exitX=0.25;exitY=1;exitDx=0;exitDy=0;" parent="1" source="152" target="232" edge="1">
                    <mxGeometry relative="1" as="geometry">
                        <mxPoint x="-400" y="590" as="sourcePoint"/>
                        <mxPoint x="-500" y="680" as="targetPoint"/>
                    </mxGeometry>
                </mxCell>
                <mxCell id="232" value="payment_id" style="ellipse;whiteSpace=wrap;html=1;align=center;fillColor=#76608a;fontColor=#ffffff;strokeColor=#432D57;" parent="1" vertex="1">
                    <mxGeometry x="-510" y="640" width="100" height="40" as="geometry"/>
                </mxCell>
                <mxCell id="236" value="Payment" style="rounded=1;arcSize=10;whiteSpace=wrap;html=1;align=center;fillColor=#647687;strokeColor=#314354;fontColor=#ffffff;" vertex="1" parent="1">
                    <mxGeometry x="-392.5" y="201.88" width="100" height="40" as="geometry"/>
                </mxCell>
                <mxCell id="237" value="course_id" style="ellipse;whiteSpace=wrap;html=1;align=center;fillColor=#76608a;fontColor=#ffffff;strokeColor=#432D57;" vertex="1" parent="1">
                    <mxGeometry x="-290" y="490" width="100" height="40" as="geometry"/>
                </mxCell>
                <mxCell id="238" value="course_id" style="ellipse;whiteSpace=wrap;html=1;align=center;fillColor=#76608a;fontColor=#ffffff;strokeColor=#432D57;" vertex="1" parent="1">
                    <mxGeometry x="-310" y="152.5" width="77.5" height="40" as="geometry"/>
                </mxCell>
                <mxCell id="241" value="course_id" style="ellipse;whiteSpace=wrap;html=1;align=center;fillColor=#76608a;fontColor=#ffffff;strokeColor=#432D57;" vertex="1" parent="1">
                    <mxGeometry x="50" y="547.5" width="100" height="40" as="geometry"/>
                </mxCell>
                <mxCell id="242" value="course_id" style="ellipse;whiteSpace=wrap;html=1;align=center;fillColor=#76608a;fontColor=#ffffff;strokeColor=#432D57;" vertex="1" parent="1">
                    <mxGeometry x="380" y="520" width="100" height="40" as="geometry"/>
                </mxCell>
                <mxCell id="243" value="course_id" style="ellipse;whiteSpace=wrap;html=1;align=center;fillColor=#76608a;fontColor=#ffffff;strokeColor=#432D57;" vertex="1" parent="1">
                    <mxGeometry x="815" y="192.5" width="100" height="40" as="geometry"/>
                </mxCell>
                <mxCell id="245" value="" style="endArrow=none;html=1;rounded=0;exitX=1;exitY=1;exitDx=0;exitDy=0;fillColor=#76608a;strokeColor=#432D57;entryX=0;entryY=0;entryDx=0;entryDy=0;" edge="1" parent="1" source="246" target="236">
                    <mxGeometry relative="1" as="geometry">
                        <mxPoint x="-520" y="59.44" as="sourcePoint"/>
                        <mxPoint x="-360" y="59.44" as="targetPoint"/>
                    </mxGeometry>
                </mxCell>
                <mxCell id="246" value="admin_id" style="ellipse;whiteSpace=wrap;html=1;align=center;fillColor=#76608a;fontColor=#ffffff;strokeColor=#432D57;" vertex="1" parent="1">
                    <mxGeometry x="-500" y="130" width="100" height="40" as="geometry"/>
                </mxCell>
                <mxCell id="248" value="std_id" style="ellipse;whiteSpace=wrap;html=1;align=center;fillColor=#76608a;fontColor=#ffffff;strokeColor=#432D57;" vertex="1" parent="1">
                    <mxGeometry x="1090" y="-200" width="100" height="40" as="geometry"/>
                </mxCell>
                <mxCell id="249" value="assig_id" style="ellipse;whiteSpace=wrap;html=1;align=center;fillColor=#76608a;fontColor=#ffffff;strokeColor=#432D57;" vertex="1" parent="1">
                    <mxGeometry x="1030" y="-100" width="100" height="40" as="geometry"/>
                </mxCell>
                <mxCell id="250" value="course_id" style="ellipse;whiteSpace=wrap;html=1;align=center;fillColor=#76608a;fontColor=#ffffff;strokeColor=#432D57;" vertex="1" parent="1">
                    <mxGeometry x="630" y="-210" width="90" height="40" as="geometry"/>
                </mxCell>
                <mxCell id="251" value="sub_id" style="ellipse;whiteSpace=wrap;html=1;align=center;fontStyle=4;fillColor=#76608a;strokeColor=#432D57;fontColor=#FFFFFF;" vertex="1" parent="1">
                    <mxGeometry x="735" y="-195" width="80" height="35" as="geometry"/>
                </mxCell>
            </root>
        </mxGraphModel>
    </diagram>
</mxfile>